# xmcd
#
# Track frame offsets:
#	150
#	20361
#	36862
#	54633
#	71304
#	84712
#	103679
#	126124
#	141343
#	154501
#	168935
#	184393
#	196788
#	212659
#
# Disc length: 3041 seconds
#
# Revision: 1
# Processed by: cddbd v1.5.2PL0 Copyright (c) Steve Scherf et al.
# Submitted via: audiograbber 1.83.01
#
DISCID=be0bdf0e
DTITLE=Various Artist - Mr Music Country 08
DYEAR=2016
DGENRE=Country
TTITLE0=Kenny Chesney - Beer In Mexico
TTITLE1=Brad Paisley - Little Moments
TTITLE2=Alabama - (There's A) Fire In The Night
TTITLE3=Mary Chapin Carpenter - House Of Cards
TTITLE4=Buddy Jewell - So Gone
TTITLE5=Van Zant - Help Somebody
TTITLE6=Patty Loveless - How Can I Help You Say Goodbye
TTITLE7=Martina McBride - There You Are
TTITLE8=Joe Diffie - It's Always Somethin'
TTITLE9=Jill Johnson - The Whiskey's Working
TTITLE10=Brooks and Dunn - My Maria
TTITLE11=Anna Ternheim - Still A Beautiful Day
TTITLE12=Jerry Williams - Blood and Tears
TTITLE13=Old Dominion - Snapback
EXTD=
EXTT0=
EXTT1=
EXTT2=
EXTT3=
EXTT4=
EXTT5=
EXTT6=
EXTT7=
EXTT8=
EXTT9=
EXTT10=
EXTT11=
EXTT12=
EXTT13=
PLAYORDER=
